[OOTR]

Naruto Shippuuden Episodes 91-143, sans filler. Manga Edit

Japanese Audio/ English H.Sub

Format : MPEG-4
Codec ID : M4V
File size : 1.89 GiB
Duration : 7h 6mn
Overall bit rate mode : Variable
Overall bit rate : 633 Kbps
Encoded date : UTC 2013-01-26 11:36:24

Video
ID : 1
Format : AVC
Format/Info : Advanced Video Codec
Format profile : High@L3.2
Format settings, CABAC : No
Format settings, ReFrames : 2 frames
Codec ID : avc1
Codec ID/Info : Advanced Video Coding
Duration : 7h 6mn
Source duration : 7h 6mn
Bit rate mode : Variable
Bit rate : 505 Kbps
Width : 854 pixels
Height : 480 pixels
Display aspect ratio : 16:9
Frame rate mode : Variable
Frame rate : 23.976 fps
Minimum frame rate : 23.976 fps
Maximum frame rate : 24.000 fps
Standard : NTSC
Color space : YUV
Chroma subsampling : 4:2:0
Bit depth : 8 bits
Scan type : Progressive
Bits/(Pixel*Frame) : 0.051
Stream size : 1.51 GiB (80%)
Source stream size : 1.51 GiB (80%)
Language : English
Encoded date : UTC 2013-01-26 11:36:24
mdhd_Duration : 25596738
Color primaries : BT.709

Audio
ID : 2
Format : AAC
Format/Info : Advanced Audio Codec
Format profile : LC
Codec ID : 40
Duration : 7h 6mn
Source duration : 7h 6mn
Bit rate mode : Variable
Bit rate : 126 Kbps
Maximum bit rate : 210 Kbps
Channel(s) : 2 channels
Channel positions : Front: L R
Sampling rate : 44.1 KHz
Compression mode : Lossy
Stream size : 383 MiB (20%) 